# xmcd
#
# Track frame offsets: 
#        150
#        11435
#        24302
#        37055
#        47657
#        61807
#        73795
#        84805
#        98350
#        111320
#        124232
#        137540
#
# Disc length: 1955 seconds
#
# Revision: 0
# Processed by: cddbd v1.5.2PL0 Copyright (c) Steve Scherf et al.
# Submitted via: ExactAudioCopyFreeDBPlugin 1.0
#
DISCID=9107a10c
DTITLE=Bill Doggett - Dame Dreaming
DYEAR=1900
DGENRE=
TTITLE0=Sweet Lorraine
TTITLE1=Diane
TTITLE2=Dinah
TTITLE3=Ramona
TTITLE4=Cherry
TTITLE5=Cynthia
TTITLE6=Jeannie
TTITLE7=Tangerine
TTITLE8=Nancy
TTITLE9=Estrellita
TTITLE10=Laura
TTITLE11=Marcheta
EXTD=
EXTT0=
EXTT1=
EXTT2=
EXTT3=
EXTT4=
EXTT5=
EXTT6=
EXTT7=
EXTT8=
EXTT9=
EXTT10=
EXTT11=
PLAYORDER=
